<?xml version="1.0" encoding="UTF-8"?>
<svg xmlns="http://www.w3.org/2000/svg" xmlns:xlink="http://www.w3.org/1999/xlink" width="52px" height="50px" viewBox="0 0 52 50" version="1.1">
<g id="surface1">
<rect x="0" y="0" width="52" height="50" style="fill:rgb(0.784314%,0.392157%,0.392157%);fill-opacity:1;stroke:none;"/>
<path style=" stroke:none;fill-rule:nonzero;fill:rgb(34.117647%,34.117647%,34.117647%);fill-opacity:1;" d="M 27.71875 9.578125 L 27.71875 9.769531 L 30.015625 9.769531 L 27.71875 9.578125 M 26.382812 9.769531 L 26.382812 9.960938 L 26.957031 9.960938 Z M 26.382812 9.769531 "/>
<path style=" stroke:none;fill-rule:nonzero;fill:rgb(67.058824%,67.058824%,67.058824%);fill-opacity:1;" d="M 27.082031 9.832031 L 27.210938 9.898438 Z M 27.082031 9.832031 "/>
<path style=" stroke:none;fill-rule:nonzero;fill:rgb(99.607843%,99.607843%,99.607843%);fill-opacity:1;" d="M 27.339844 9.851562 C 24.371094 10.277344 21.570312 11.535156 19.535156 13.792969 C 18.660156 14.761719 18.121094 16.316406 17.132812 17.125 C 16.269531 17.832031 14.609375 17.773438 13.574219 18.261719 C 10.78125 19.570312 8.835938 22.386719 8.621094 25.480469 C 8.332031 29.574219 10.738281 33.449219 14.71875 34.667969 C 16.628906 35.25 18.679688 35.058594 20.648438 35.058594 C 21.949219 35.058594 24.449219 35.539062 25.589844 34.859375 C 26.617188 34.25 26.058594 32.949219 25.042969 32.785156 C 22.125 32.324219 18.9375 33.339844 16.058594 32.582031 C 11.566406 31.402344 9.25 25.886719 12.460938 22.222656 C 13.441406 21.105469 14.605469 20.257812 16.058594 19.902344 C 16.871094 19.707031 18.175781 19.992188 18.832031 19.425781 C 19.953125 18.453125 20.375 16.476562 21.445312 15.332031 C 24.316406 12.253906 28.839844 11.324219 32.691406 12.875 C 35.605469 14.046875 37.824219 16.535156 38.726562 19.539062 C 38.976562 20.378906 39.242188 21.984375 40.519531 21.527344 C 42.632812 20.769531 39.984375 16.175781 39.28125 15.132812 C 36.730469 11.34375 31.863281 9.203125 27.339844 9.851562 Z M 27.339844 9.851562 "/>
<path style=" stroke:none;fill-rule:nonzero;fill:rgb(67.058824%,67.058824%,67.058824%);fill-opacity:1;" d="M 30.398438 9.769531 L 30.398438 9.960938 L 30.96875 9.960938 Z M 30.398438 9.769531 "/>
<path style=" stroke:none;fill-rule:nonzero;fill:rgb(34.117647%,34.117647%,34.117647%);fill-opacity:1;" d="M 31.097656 9.832031 L 31.226562 9.898438 L 31.097656 9.832031 M 25.617188 9.960938 L 25.808594 10.152344 Z M 25.617188 9.960938 "/>
<path style=" stroke:none;fill-rule:nonzero;fill:rgb(67.058824%,67.058824%,67.058824%);fill-opacity:1;" d="M 25.9375 10.027344 L 26.0625 10.089844 L 25.9375 10.027344 M 31.671875 10.027344 L 31.800781 10.089844 Z M 31.671875 10.027344 "/>
<path style=" stroke:none;fill-rule:nonzero;fill:rgb(34.117647%,34.117647%,34.117647%);fill-opacity:1;" d="M 31.925781 9.960938 L 32.117188 10.152344 L 31.925781 9.960938 M 25.042969 10.152344 L 25.234375 10.34375 Z M 25.042969 10.152344 "/>
<path style=" stroke:none;fill-rule:nonzero;fill:rgb(67.058824%,67.058824%,67.058824%);fill-opacity:1;" d="M 25.234375 10.152344 L 25.425781 10.34375 L 25.234375 10.152344 M 32.4375 10.21875 L 32.5625 10.28125 Z M 32.4375 10.21875 "/>
<path style=" stroke:none;fill-rule:nonzero;fill:rgb(34.117647%,34.117647%,34.117647%);fill-opacity:1;" d="M 32.691406 10.152344 L 32.882812 10.34375 L 32.691406 10.152344 M 24.46875 10.34375 L 24.660156 10.535156 Z M 24.46875 10.34375 "/>
<path style=" stroke:none;fill-rule:nonzero;fill:rgb(67.058824%,67.058824%,67.058824%);fill-opacity:1;" d="M 24.660156 10.34375 L 24.851562 10.535156 L 24.660156 10.34375 M 33.074219 10.34375 L 33.265625 10.535156 Z M 33.074219 10.34375 "/>
<path style=" stroke:none;fill-rule:nonzero;fill:rgb(34.117647%,34.117647%,34.117647%);fill-opacity:1;" d="M 23.898438 10.535156 L 24.089844 10.726562 Z M 23.898438 10.535156 "/>
<path style=" stroke:none;fill-rule:nonzero;fill:rgb(67.058824%,67.058824%,67.058824%);fill-opacity:1;" d="M 24.089844 10.535156 L 24.28125 10.726562 L 24.089844 10.535156 M 33.457031 10.535156 L 33.648438 10.726562 Z M 33.457031 10.535156 "/>
<path style=" stroke:none;fill-rule:nonzero;fill:rgb(34.117647%,34.117647%,34.117647%);fill-opacity:1;" d="M 33.648438 10.535156 L 33.839844 10.726562 L 33.648438 10.535156 M 23.515625 10.726562 L 23.707031 10.917969 L 23.515625 10.726562 M 34.03125 10.726562 L 34.21875 10.917969 L 34.03125 10.726562 M 23.132812 10.917969 L 23.324219 11.109375 Z M 23.132812 10.917969 "/>
<path style=" stroke:none;fill-rule:nonzero;fill:rgb(67.058824%,67.058824%,67.058824%);fill-opacity:1;" d="M 34.410156 10.917969 L 34.601562 11.109375 Z M 34.410156 10.917969 "/>
<path style=" stroke:none;fill-rule:nonzero;fill:rgb(34.117647%,34.117647%,34.117647%);fill-opacity:1;" d="M 22.75 11.109375 L 22.941406 11.300781 L 22.75 11.109375 M 34.792969 11.109375 L 34.984375 11.300781 L 34.792969 11.109375 M 22.367188 11.300781 L 22.558594 11.496094 L 22.367188 11.300781 M 35.175781 11.300781 L 35.367188 11.496094 Z M 35.175781 11.300781 "/>
<path style=" stroke:none;fill-rule:nonzero;fill:rgb(67.058824%,67.058824%,67.058824%);fill-opacity:1;" d="M 22.175781 11.496094 L 22.367188 11.6875 L 22.175781 11.496094 M 35.367188 11.496094 L 35.558594 11.6875 Z M 35.367188 11.496094 "/>
<path style=" stroke:none;fill-rule:nonzero;fill:rgb(34.117647%,34.117647%,34.117647%);fill-opacity:1;" d="M 35.558594 11.496094 L 35.75 11.6875 L 35.558594 11.496094 M 21.792969 11.6875 L 21.984375 11.878906 Z M 21.792969 11.6875 "/>
<path style=" stroke:none;fill-rule:nonzero;fill:rgb(67.058824%,67.058824%,67.058824%);fill-opacity:1;" d="M 35.75 11.6875 L 35.941406 11.878906 L 35.75 11.6875 M 21.601562 11.878906 L 21.792969 12.070312 Z M 21.601562 11.878906 "/>
<path style=" stroke:none;fill-rule:nonzero;fill:rgb(34.117647%,34.117647%,34.117647%);fill-opacity:1;" d="M 36.132812 11.878906 L 36.324219 12.070312 L 36.132812 11.878906 M 21.21875 12.070312 L 21.410156 12.261719 Z M 21.21875 12.070312 "/>
<path style=" stroke:none;fill-rule:nonzero;fill:rgb(67.058824%,67.058824%,67.058824%);fill-opacity:1;" d="M 27.65625 12.132812 L 27.785156 12.195312 Z M 27.65625 12.132812 "/>
<path style=" stroke:none;fill-rule:nonzero;fill:rgb(34.117647%,34.117647%,34.117647%);fill-opacity:1;" d="M 27.910156 12.070312 L 27.910156 12.261719 L 29.824219 12.261719 Z M 27.910156 12.070312 "/>
<path style=" stroke:none;fill-rule:nonzero;fill:rgb(67.058824%,67.058824%,67.058824%);fill-opacity:1;" d="M 29.949219 12.132812 L 30.078125 12.195312 Z M 29.949219 12.132812 "/>
<path style=" stroke:none;fill-rule:nonzero;fill:rgb(34.117647%,34.117647%,34.117647%);fill-opacity:1;" d="M 36.324219 12.070312 L 36.515625 12.261719 Z M 36.324219 12.070312 "/>
<path style=" stroke:none;fill-rule:nonzero;fill:rgb(67.058824%,67.058824%,67.058824%);fill-opacity:1;" d="M 21.03125 12.261719 L 21.21875 12.453125 L 21.03125 12.261719 M 26.574219 12.261719 L 26.765625 12.453125 Z M 26.574219 12.261719 "/>
<path style=" stroke:none;fill-rule:nonzero;fill:rgb(34.117647%,34.117647%,34.117647%);fill-opacity:1;" d="M 26.890625 12.324219 L 27.019531 12.386719 L 26.890625 12.324219 M 30.714844 12.324219 L 30.84375 12.386719 Z M 30.714844 12.324219 "/>
<path style=" stroke:none;fill-rule:nonzero;fill:rgb(67.058824%,67.058824%,67.058824%);fill-opacity:1;" d="M 30.96875 12.261719 L 31.160156 12.453125 L 30.96875 12.261719 M 36.515625 12.261719 L 36.707031 12.453125 L 36.515625 12.261719 M 20.839844 12.453125 L 21.03125 12.644531 L 20.839844 12.453125 M 25.808594 12.453125 L 26 12.644531 Z M 25.808594 12.453125 "/>
<path style=" stroke:none;fill-rule:nonzero;fill:rgb(34.117647%,34.117647%,34.117647%);fill-opacity:1;" d="M 26 12.453125 L 26.191406 12.644531 L 26 12.453125 M 31.542969 12.453125 L 31.734375 12.644531 Z M 31.542969 12.453125 "/>
<path style=" stroke:none;fill-rule:nonzero;fill:rgb(67.058824%,67.058824%,67.058824%);fill-opacity:1;" d="M 31.734375 12.453125 L 31.925781 12.644531 Z M 31.734375 12.453125 "/>
<path style=" stroke:none;fill-rule:nonzero;fill:rgb(34.117647%,34.117647%,34.117647%);fill-opacity:1;" d="M 36.898438 12.453125 L 37.089844 12.644531 L 36.898438 12.453125 M 20.457031 12.644531 L 20.648438 12.835938 Z M 20.457031 12.644531 "/>
<path style=" stroke:none;fill-rule:nonzero;fill:rgb(67.058824%,67.058824%,67.058824%);fill-opacity:1;" d="M 25.234375 12.644531 L 25.425781 12.835938 Z M 25.234375 12.644531 "/>
<path style=" stroke:none;fill-rule:nonzero;fill:rgb(34.117647%,34.117647%,34.117647%);fill-opacity:1;" d="M 25.425781 12.644531 L 25.617188 12.835938 L 25.425781 12.644531 M 32.117188 12.644531 L 32.308594 12.835938 Z M 32.117188 12.644531 "/>
<path style=" stroke:none;fill-rule:nonzero;fill:rgb(67.058824%,67.058824%,67.058824%);fill-opacity:1;" d="M 32.308594 12.644531 L 32.5 12.835938 Z M 32.308594 12.644531 "/>
<path style=" stroke:none;fill-rule:nonzero;fill:rgb(34.117647%,34.117647%,34.117647%);fill-opacity:1;" d="M 37.089844 12.644531 L 37.28125 12.835938 L 37.089844 12.644531 M 20.265625 12.835938 L 20.457031 13.027344 L 20.265625 12.835938 M 24.851562 12.835938 L 25.042969 13.027344 L 24.851562 12.835938 M 32.691406 12.835938 L 32.882812 13.027344 L 32.691406 12.835938 M 37.28125 12.835938 L 37.46875 13.027344 L 37.28125 12.835938 M 20.074219 13.027344 L 20.265625 13.21875 L 20.074219 13.027344 M 24.46875 13.027344 L 24.660156 13.21875 L 24.46875 13.027344 M 33.074219 13.027344 L 33.265625 13.21875 Z M 33.074219 13.027344 "/>
<path style=" stroke:none;fill-rule:nonzero;fill:rgb(67.058824%,67.058824%,67.058824%);fill-opacity:1;" d="M 33.265625 13.027344 L 33.457031 13.21875 L 33.265625 13.027344 M 37.46875 13.027344 L 37.660156 13.21875 Z M 37.46875 13.027344 "/>
<path style=" stroke:none;fill-rule:nonzero;fill:rgb(34.117647%,34.117647%,34.117647%);fill-opacity:1;" d="M 19.882812 13.21875 L 20.074219 13.410156 L 19.882812 13.21875 M 24.089844 13.21875 L 24.28125 13.410156 L 24.089844 13.21875 M 33.457031 13.21875 L 33.648438 13.410156 Z M 33.457031 13.21875 "/>
<path style=" stroke:none;fill-rule:nonzero;fill:rgb(67.058824%,67.058824%,67.058824%);fill-opacity:1;" d="M 33.648438 13.21875 L 33.839844 13.410156 L 33.648438 13.21875 M 37.660156 13.21875 L 37.851562 13.410156 Z M 37.660156 13.21875 "/>
<path style=" stroke:none;fill-rule:nonzero;fill:rgb(34.117647%,34.117647%,34.117647%);fill-opacity:1;" d="M 19.691406 13.410156 L 19.882812 13.601562 L 19.691406 13.410156 M 23.707031 13.410156 L 23.898438 13.601562 L 23.707031 13.410156 M 33.839844 13.410156 L 34.03125 13.601562 Z M 33.839844 13.410156 "/>
<path style=" stroke:none;fill-rule:nonzero;fill:rgb(67.058824%,67.058824%,67.058824%);fill-opacity:1;" d="M 37.851562 13.410156 L 38.042969 13.601562 Z M 37.851562 13.410156 "/>
<path style=" stroke:none;fill-rule:nonzero;fill:rgb(34.117647%,34.117647%,34.117647%);fill-opacity:1;" d="M 19.5 13.601562 L 19.691406 13.792969 Z M 19.5 13.601562 "/>
<path style=" stroke:none;fill-rule:nonzero;fill:rgb(67.058824%,67.058824%,67.058824%);fill-opacity:1;" d="M 23.324219 13.601562 L 23.515625 13.792969 L 23.324219 13.601562 M 34.21875 13.601562 L 34.410156 13.792969 L 34.21875 13.601562 M 38.042969 13.601562 L 38.234375 13.792969 Z M 38.042969 13.601562 "/>
<path style=" stroke:none;fill-rule:nonzero;fill:rgb(34.117647%,34.117647%,34.117647%);fill-opacity:1;" d="M 19.308594 13.792969 L 19.5 13.984375 L 19.308594 13.792969 M 23.132812 13.792969 L 23.324219 13.984375 L 23.132812 13.792969 M 34.410156 13.792969 L 34.601562 13.984375 Z M 34.410156 13.792969 "/>
<path style=" stroke:none;fill-rule:nonzero;fill:rgb(67.058824%,67.058824%,67.058824%);fill-opacity:1;" d="M 34.601562 13.792969 L 34.792969 13.984375 Z M 34.601562 13.792969 "/>
<path style=" stroke:none;fill-rule:nonzero;fill:rgb(34.117647%,34.117647%,34.117647%);fill-opacity:1;" d="M 38.234375 13.792969 L 38.425781 13.984375 L 38.234375 13.792969 M 19.117188 13.984375 L 19.308594 14.175781 Z M 19.117188 13.984375 "/>
<path style=" stroke:none;fill-rule:nonzero;fill:rgb(67.058824%,67.058824%,67.058824%);fill-opacity:1;" d="M 22.75 13.984375 L 22.941406 14.175781 L 22.75 13.984375 M 34.792969 13.984375 L 34.984375 14.175781 Z M 34.792969 13.984375 "/>
<path style=" stroke:none;fill-rule:nonzero;fill:rgb(34.117647%,34.117647%,34.117647%);fill-opacity:1;" d="M 38.425781 13.984375 L 38.617188 14.175781 L 38.425781 13.984375 M 22.558594 14.175781 L 22.75 14.367188 L 22.558594 14.175781 M 34.984375 14.175781 L 35.175781 14.367188 L 34.984375 14.175781 M 38.617188 14.175781 L 38.808594 14.367188 Z M 38.617188 14.175781 "/>
<path style=" stroke:none;fill-rule:nonzero;fill:rgb(67.058824%,67.058824%,67.058824%);fill-opacity:1;" d="M 18.925781 14.367188 L 19.117188 14.558594 Z M 18.925781 14.367188 "/>
<path style=" stroke:none;fill-rule:nonzero;fill:rgb(34.117647%,34.117647%,34.117647%);fill-opacity:1;" d="M 22.367188 14.367188 L 22.558594 14.558594 L 22.367188 14.367188 M 35.175781 14.367188 L 35.367188 14.558594 Z M 35.175781 14.367188 "/>
<path style=" stroke:none;fill-rule:nonzero;fill:rgb(67.058824%,67.058824%,67.058824%);fill-opacity:1;" d="M 35.367188 14.367188 L 35.558594 14.558594 L 35.367188 14.367188 M 18.734375 14.558594 L 18.925781 14.75 L 18.734375 14.558594 M 21.984375 14.558594 L 22.175781 14.75 Z M 21.984375 14.558594 "/>
<path style=" stroke:none;fill-rule:nonzero;fill:rgb(34.117647%,34.117647%,34.117647%);fill-opacity:1;" d="M 22.175781 14.558594 L 22.367188 14.75 Z M 22.175781 14.558594 "/>
<path style=" stroke:none;fill-rule:nonzero;fill:rgb(67.058824%,67.058824%,67.058824%);fill-opacity:1;" d="M 35.558594 14.558594 L 35.75 14.75 L 35.558594 14.558594 M 38.808594 14.558594 L 39 14.75 Z M 38.808594 14.558594 "/>
<path style=" stroke:none;fill-rule:nonzero;fill:rgb(34.117647%,34.117647%,34.117647%);fill-opacity:1;" d="M 18.542969 14.75 L 18.734375 14.941406 Z M 18.542969 14.75 "/>
<path style=" stroke:none;fill-rule:nonzero;fill:rgb(67.058824%,67.058824%,67.058824%);fill-opacity:1;" d="M 21.792969 14.75 L 21.984375 14.941406 L 21.792969 14.75 M 35.75 14.75 L 35.941406 14.941406 Z M 35.75 14.75 "/>
<path style=" stroke:none;fill-rule:nonzero;fill:rgb(34.117647%,34.117647%,34.117647%);fill-opacity:1;" d="M 39 14.75 L 39.191406 14.941406 Z M 39 14.75 "/>
<path style=" stroke:none;fill-rule:nonzero;fill:rgb(67.058824%,67.058824%,67.058824%);fill-opacity:1;" d="M 21.601562 14.941406 L 21.792969 15.132812 L 21.601562 14.941406 M 35.941406 14.941406 L 36.132812 15.132812 Z M 35.941406 14.941406 "/>
<path style=" stroke:none;fill-rule:nonzero;fill:rgb(34.117647%,34.117647%,34.117647%);fill-opacity:1;" d="M 39.191406 14.941406 L 39.382812 15.132812 Z M 39.191406 14.941406 "/>
<path style=" stroke:none;fill-rule:nonzero;fill:rgb(67.058824%,67.058824%,67.058824%);fill-opacity:1;" d="M 18.351562 15.132812 L 18.542969 15.324219 L 18.351562 15.132812 M 21.410156 15.132812 L 21.601562 15.324219 L 21.410156 15.132812 M 36.132812 15.132812 L 36.324219 15.324219 Z M 36.132812 15.132812 "/>
<path style=" stroke:none;fill-rule:nonzero;fill:rgb(34.117647%,34.117647%,34.117647%);fill-opacity:1;" d="M 18.160156 15.324219 L 18.351562 15.515625 Z M 18.160156 15.324219 "/>
<path style=" stroke:none;fill-rule:nonzero;fill:rgb(67.058824%,67.058824%,67.058824%);fill-opacity:1;" d="M 21.21875 15.324219 L 21.410156 15.515625 L 21.21875 15.324219 M 36.324219 15.324219 L 36.515625 15.515625 L 36.324219 15.324219 M 39.382812 15.324219 L 39.574219 15.515625 L 39.382812 15.324219 M 21.03125 15.515625 L 21.21875 15.707031 L 21.03125 15.515625 M 36.515625 15.515625 L 36.707031 15.707031 Z M 36.515625 15.515625 "/>
<path style=" stroke:none;fill-rule:nonzero;fill:rgb(34.117647%,34.117647%,34.117647%);fill-opacity:1;" d="M 39.574219 15.515625 L 39.765625 15.707031 Z M 39.574219 15.515625 "/>
<path style=" stroke:none;fill-rule:nonzero;fill:rgb(67.058824%,67.058824%,67.058824%);fill-opacity:1;" d="M 17.96875 15.707031 L 18.160156 15.898438 Z M 17.96875 15.707031 "/>
<path style=" stroke:none;fill-rule:nonzero;fill:rgb(34.117647%,34.117647%,34.117647%);fill-opacity:1;" d="M 21.03125 15.707031 L 21.21875 15.898438 Z M 21.03125 15.707031 "/>
<path style=" stroke:none;fill-rule:nonzero;fill:rgb(67.058824%,67.058824%,67.058824%);fill-opacity:1;" d="M 36.707031 15.707031 L 36.898438 15.898438 L 36.707031 15.707031 M 39.574219 15.707031 L 39.765625 15.898438 Z M 39.574219 15.707031 "/>
<path style=" stroke:none;fill-rule:nonzero;fill:rgb(34.117647%,34.117647%,34.117647%);fill-opacity:1;" d="M 17.78125 15.898438 L 17.96875 16.09375 L 17.78125 15.898438 M 20.839844 15.898438 L 21.03125 16.09375 L 20.839844 15.898438 M 36.707031 15.898438 L 36.898438 16.09375 L 36.707031 15.898438 M 39.765625 15.898438 L 39.957031 16.09375 L 39.765625 15.898438 M 20.648438 16.09375 L 20.839844 16.285156 L 20.648438 16.09375 M 36.898438 16.09375 L 37.089844 16.285156 L 36.898438 16.09375 M 17.589844 16.285156 L 17.78125 16.476562 Z M 17.589844 16.285156 "/>
<path style=" stroke:none;fill-rule:nonzero;fill:rgb(67.058824%,67.058824%,67.058824%);fill-opacity:1;" d="M 20.457031 16.285156 L 20.648438 16.476562 L 20.457031 16.285156 M 37.089844 16.285156 L 37.28125 16.476562 Z M 37.089844 16.285156 "/>
<path style=" stroke:none;fill-rule:nonzero;fill:rgb(34.117647%,34.117647%,34.117647%);fill-opacity:1;" d="M 39.957031 16.285156 L 40.148438 16.476562 Z M 39.957031 16.285156 "/>
<path style=" stroke:none;fill-rule:nonzero;fill:rgb(67.058824%,67.058824%,67.058824%);fill-opacity:1;" d="M 37.28125 16.476562 L 37.46875 16.667969 Z M 37.28125 16.476562 "/>
<path style=" stroke:none;fill-rule:nonzero;fill:rgb(34.117647%,34.117647%,34.117647%);fill-opacity:1;" d="M 17.398438 16.667969 L 17.589844 16.859375 L 17.398438 16.667969 M 20.265625 16.667969 L 20.457031 16.859375 L 20.265625 16.667969 M 37.28125 16.667969 L 37.46875 16.859375 Z M 37.28125 16.667969 "/>
<path style=" stroke:none;fill-rule:nonzero;fill:rgb(67.058824%,67.058824%,67.058824%);fill-opacity:1;" d="M 40.148438 16.667969 L 40.339844 16.859375 L 40.148438 16.667969 M 20.074219 16.859375 L 20.265625 17.050781 L 20.074219 16.859375 M 37.46875 16.859375 L 37.660156 17.050781 Z M 37.46875 16.859375 "/>
<path style=" stroke:none;fill-rule:nonzero;fill:rgb(34.117647%,34.117647%,34.117647%);fill-opacity:1;" d="M 17.207031 17.050781 L 17.398438 17.242188 L 17.207031 17.050781 M 40.339844 17.050781 L 40.53125 17.242188 L 40.339844 17.050781 M 16.441406 17.242188 L 16.441406 17.433594 L 17.207031 17.433594 L 16.441406 17.242188 M 19.882812 17.242188 L 20.074219 17.433594 L 19.882812 17.242188 M 37.660156 17.242188 L 37.851562 17.433594 L 37.660156 17.242188 M 15.421875 17.496094 L 15.550781 17.5625 Z M 15.421875 17.496094 "/>
<path style=" stroke:none;fill-rule:nonzero;fill:rgb(67.058824%,67.058824%,67.058824%);fill-opacity:1;" d="M 15.804688 17.496094 L 15.929688 17.5625 L 15.804688 17.496094 M 37.851562 17.433594 L 38.042969 17.625 Z M 37.851562 17.433594 "/>
<path style=" stroke:none;fill-rule:nonzero;fill:rgb(34.117647%,34.117647%,34.117647%);fill-opacity:1;" d="M 40.53125 17.433594 L 40.71875 17.625 L 40.53125 17.433594 M 14.71875 17.625 L 14.910156 17.816406 Z M 14.71875 17.625 "/>
<path style=" stroke:none;fill-rule:nonzero;fill:rgb(67.058824%,67.058824%,67.058824%);fill-opacity:1;" d="M 14.910156 17.625 L 15.101562 17.816406 Z M 14.910156 17.625 "/>
<path style=" stroke:none;fill-rule:nonzero;fill:rgb(34.117647%,34.117647%,34.117647%);fill-opacity:1;" d="M 19.691406 17.625 L 19.882812 17.816406 L 19.691406 17.625 M 37.851562 17.625 L 38.042969 17.816406 Z M 37.851562 17.625 "/>
<path style=" stroke:none;fill-rule:nonzero;fill:rgb(67.058824%,67.058824%,67.058824%);fill-opacity:1;" d="M 40.53125 17.625 L 40.71875 17.816406 Z M 40.53125 17.625 "/>
<path style=" stroke:none;fill-rule:nonzero;fill:rgb(34.117647%,34.117647%,34.117647%);fill-opacity:1;" d="M 14.148438 17.816406 L 14.339844 18.007812 Z M 14.148438 17.816406 "/>
<path style=" stroke:none;fill-rule:nonzero;fill:rgb(67.058824%,67.058824%,67.058824%);fill-opacity:1;" d="M 14.339844 17.816406 L 14.53125 18.007812 L 14.339844 17.816406 M 38.042969 17.816406 L 38.234375 18.007812 L 38.042969 17.816406 M 13.765625 18.007812 L 13.957031 18.199219 Z M 13.765625 18.007812 "/>
<path style=" stroke:none;fill-rule:nonzero;fill:rgb(34.117647%,34.117647%,34.117647%);fill-opacity:1;" d="M 19.5 18.007812 L 19.691406 18.199219 L 19.5 18.007812 M 38.042969 18.007812 L 38.234375 18.199219 Z M 38.042969 18.007812 "/>
<path style=" stroke:none;fill-rule:nonzero;fill:rgb(67.058824%,67.058824%,67.058824%);fill-opacity:1;" d="M 40.71875 18.007812 L 40.910156 18.199219 L 40.71875 18.007812 M 13.382812 18.199219 L 13.574219 18.390625 L 13.382812 18.199219 M 13 18.390625 L 13.191406 18.582031 L 13 18.390625 M 19.308594 18.390625 L 19.5 18.582031 Z M 19.308594 18.390625 "/>
<path style=" stroke:none;fill-rule:nonzero;fill:rgb(34.117647%,34.117647%,34.117647%);fill-opacity:1;" d="M 38.234375 18.390625 L 38.425781 18.582031 L 38.234375 18.390625 M 40.976562 18.519531 L 41.039062 18.644531 L 40.976562 18.519531 M 12.617188 18.582031 L 12.808594 18.773438 Z M 12.617188 18.582031 "/>
<path style=" stroke:none;fill-rule:nonzero;fill:rgb(67.058824%,67.058824%,67.058824%);fill-opacity:1;" d="M 12.425781 18.773438 L 12.617188 18.964844 L 12.425781 18.773438 M 19.117188 18.773438 L 19.308594 18.964844 L 19.117188 18.773438 M 38.425781 18.773438 L 38.617188 18.964844 L 38.425781 18.773438 M 40.910156 18.773438 L 41.101562 18.964844 Z M 40.910156 18.773438 "/>
<path style=" stroke:none;fill-rule:nonzero;fill:rgb(34.117647%,34.117647%,34.117647%);fill-opacity:1;" d="M 12.042969 18.964844 L 12.234375 19.15625 L 12.042969 18.964844 M 19.117188 18.964844 L 19.308594 19.15625 L 19.117188 18.964844 M 38.425781 18.964844 L 38.617188 19.15625 Z M 38.425781 18.964844 "/>
<path style=" stroke:none;fill-rule:nonzero;fill:rgb(67.058824%,67.058824%,67.058824%);fill-opacity:1;" d="M 11.851562 19.15625 L 12.042969 19.347656 Z M 11.851562 19.15625 "/>
<path style=" stroke:none;fill-rule:nonzero;fill:rgb(34.117647%,34.117647%,34.117647%);fill-opacity:1;" d="M 41.101562 19.15625 L 41.292969 19.347656 Z M 41.101562 19.15625 "/>
<path style=" stroke:none;fill-rule:nonzero;fill:rgb(67.058824%,67.058824%,67.058824%);fill-opacity:1;" d="M 11.660156 19.347656 L 11.851562 19.539062 Z M 11.660156 19.347656 "/>
<path style=" stroke:none;fill-rule:nonzero;fill:rgb(34.117647%,34.117647%,34.117647%);fill-opacity:1;" d="M 18.925781 19.347656 L 19.117188 19.539062 Z M 18.925781 19.347656 "/>
<path style=" stroke:none;fill-rule:nonzero;fill:rgb(67.058824%,67.058824%,67.058824%);fill-opacity:1;" d="M 38.617188 19.347656 L 38.808594 19.539062 L 38.617188 19.347656 M 41.167969 19.476562 L 41.230469 19.605469 Z M 41.167969 19.476562 "/>
<path style=" stroke:none;fill-rule:nonzero;fill:rgb(34.117647%,34.117647%,34.117647%);fill-opacity:1;" d="M 11.28125 19.539062 L 11.46875 19.730469 L 11.28125 19.539062 M 18.734375 19.539062 L 18.925781 19.730469 L 18.734375 19.539062 M 38.617188 19.539062 L 38.808594 19.730469 L 38.617188 19.539062 M 11.089844 19.730469 L 11.28125 19.921875 Z M 11.089844 19.730469 "/>
<path style=" stroke:none;fill-rule:nonzero;fill:rgb(67.058824%,67.058824%,67.058824%);fill-opacity:1;" d="M 16.378906 19.796875 L 16.503906 19.859375 Z M 16.378906 19.796875 "/>
<path style=" stroke:none;fill-rule:nonzero;fill:rgb(34.117647%,34.117647%,34.117647%);fill-opacity:1;" d="M 16.632812 19.730469 L 16.632812 19.921875 L 17.78125 19.921875 Z M 16.632812 19.730469 "/>
<path style=" stroke:none;fill-rule:nonzero;fill:rgb(67.058824%,67.058824%,67.058824%);fill-opacity:1;" d="M 17.78125 19.730469 L 17.78125 19.921875 L 18.351562 19.921875 Z M 17.78125 19.730469 "/>
<path style=" stroke:none;fill-rule:nonzero;fill:rgb(34.117647%,34.117647%,34.117647%);fill-opacity:1;" d="M 18.351562 19.730469 L 18.542969 19.921875 L 18.351562 19.730469 M 10.898438 19.921875 L 11.089844 20.113281 Z M 10.898438 19.921875 "/>
<path style=" stroke:none;fill-rule:nonzero;fill:rgb(67.058824%,67.058824%,67.058824%);fill-opacity:1;" d="M 15.484375 19.921875 L 15.675781 20.113281 Z M 15.484375 19.921875 "/>
<path style=" stroke:none;fill-rule:nonzero;fill:rgb(34.117647%,34.117647%,34.117647%);fill-opacity:1;" d="M 15.804688 19.988281 L 15.929688 20.050781 L 15.804688 19.988281 M 41.292969 19.921875 L 41.292969 20.882812 L 41.484375 20.882812 L 41.292969 19.921875 M 10.707031 20.113281 L 10.898438 20.304688 Z M 10.707031 20.113281 "/>
<path style=" stroke:none;fill-rule:nonzero;fill:rgb(67.058824%,67.058824%,67.058824%);fill-opacity:1;" d="M 14.910156 20.113281 L 15.101562 20.304688 Z M 14.910156 20.113281 "/>
<path style=" stroke:none;fill-rule:nonzero;fill:rgb(34.117647%,34.117647%,34.117647%);fill-opacity:1;" d="M 15.101562 20.113281 L 15.292969 20.304688 Z M 15.101562 20.113281 "/>
<path style=" stroke:none;fill-rule:nonzero;fill:rgb(67.058824%,67.058824%,67.058824%);fill-opacity:1;" d="M 38.808594 20.113281 L 39 20.304688 L 38.808594 20.113281 M 14.53125 20.304688 L 14.71875 20.5 Z M 14.53125 20.304688 "/>
<path style=" stroke:none;fill-rule:nonzero;fill:rgb(34.117647%,34.117647%,34.117647%);fill-opacity:1;" d="M 14.71875 20.304688 L 14.910156 20.5 L 14.71875 20.304688 M 38.871094 20.433594 L 38.9375 20.5625 Z M 38.871094 20.433594 "/>
<path style=" stroke:none;fill-rule:nonzero;fill:rgb(67.058824%,67.058824%,67.058824%);fill-opacity:1;" d="M 10.515625 20.5 L 10.707031 20.691406 L 10.515625 20.5 M 14.148438 20.5 L 14.339844 20.691406 Z M 14.148438 20.5 "/>
<path style=" stroke:none;fill-rule:nonzero;fill:rgb(34.117647%,34.117647%,34.117647%);fill-opacity:1;" d="M 14.339844 20.5 L 14.53125 20.691406 Z M 14.339844 20.5 "/>
<path style=" stroke:none;fill-rule:nonzero;fill:rgb(67.058824%,67.058824%,67.058824%);fill-opacity:1;" d="M 10.324219 20.691406 L 10.515625 20.882812 Z M 10.324219 20.691406 "/>
<path style=" stroke:none;fill-rule:nonzero;fill:rgb(34.117647%,34.117647%,34.117647%);fill-opacity:1;" d="M 13.957031 20.691406 L 14.148438 20.882812 L 13.957031 20.691406 M 10.132812 20.882812 L 10.324219 21.074219 Z M 10.132812 20.882812 "/>
<path style=" stroke:none;fill-rule:nonzero;fill:rgb(67.058824%,67.058824%,67.058824%);fill-opacity:1;" d="M 13.574219 20.882812 L 13.765625 21.074219 L 13.574219 20.882812 M 39 20.882812 L 39.191406 21.074219 Z M 39 20.882812 "/>
<path style=" stroke:none;fill-rule:nonzero;fill:rgb(34.117647%,34.117647%,34.117647%);fill-opacity:1;" d="M 13.382812 21.074219 L 13.574219 21.265625 L 13.382812 21.074219 M 39 21.074219 L 39.191406 21.265625 Z M 39 21.074219 "/>
<path style=" stroke:none;fill-rule:nonzero;fill:rgb(67.058824%,67.058824%,67.058824%);fill-opacity:1;" d="M 41.101562 21.074219 L 41.292969 21.265625 L 41.101562 21.074219 M 9.941406 21.265625 L 10.132812 21.457031 Z M 9.941406 21.265625 "/>
<path style=" stroke:none;fill-rule:nonzero;fill:rgb(34.117647%,34.117647%,34.117647%);fill-opacity:1;" d="M 13.191406 21.265625 L 13.382812 21.457031 L 13.191406 21.265625 M 39.191406 21.265625 L 39.382812 21.457031 Z M 39.191406 21.265625 "/>
<path style=" stroke:none;fill-rule:nonzero;fill:rgb(67.058824%,67.058824%,67.058824%);fill-opacity:1;" d="M 40.910156 21.265625 L 41.101562 21.457031 Z M 40.910156 21.265625 "/>
<path style=" stroke:none;fill-rule:nonzero;fill:rgb(34.117647%,34.117647%,34.117647%);fill-opacity:1;" d="M 9.75 21.457031 L 9.941406 21.648438 L 9.75 21.457031 M 13 21.457031 L 13.191406 21.648438 L 13 21.457031 M 39.382812 21.457031 L 39.574219 21.648438 L 39.382812 21.457031 M 40.71875 21.457031 L 40.910156 21.648438 L 40.71875 21.457031 M 12.808594 21.648438 L 13 21.839844 L 12.808594 21.648438 M 39.765625 21.648438 L 39.765625 21.839844 L 40.53125 21.839844 Z M 39.765625 21.648438 "/>
<path style=" stroke:none;fill-rule:nonzero;fill:rgb(67.058824%,67.058824%,67.058824%);fill-opacity:1;" d="M 9.558594 21.839844 L 9.75 22.03125 Z M 9.558594 21.839844 "/>
<path style=" stroke:none;fill-rule:nonzero;fill:rgb(34.117647%,34.117647%,34.117647%);fill-opacity:1;" d="M 12.617188 21.839844 L 12.808594 22.03125 L 12.617188 21.839844 M 12.425781 22.03125 L 12.617188 22.222656 Z M 12.425781 22.03125 "/>
<path style=" stroke:none;fill-rule:nonzero;fill:rgb(67.058824%,67.058824%,67.058824%);fill-opacity:1;" d="M 9.367188 22.222656 L 9.558594 22.414062 Z M 9.367188 22.222656 "/>
<path style=" stroke:none;fill-rule:nonzero;fill:rgb(34.117647%,34.117647%,34.117647%);fill-opacity:1;" d="M 12.234375 22.222656 L 12.425781 22.414062 Z M 12.234375 22.222656 "/>
<path style=" stroke:none;fill-rule:nonzero;fill:rgb(67.058824%,67.058824%,67.058824%);fill-opacity:1;" d="M 12.042969 22.414062 L 12.234375 22.605469 L 12.042969 22.414062 M 9.175781 22.605469 L 9.367188 22.796875 Z M 9.175781 22.605469 "/>
<path style=" stroke:none;fill-rule:nonzero;fill:rgb(34.117647%,34.117647%,34.117647%);fill-opacity:1;" d="M 11.851562 22.796875 L 12.042969 22.988281 L 11.851562 22.796875 M 8.984375 22.988281 L 9.175781 23.179688 Z M 8.984375 22.988281 "/>
<path style=" stroke:none;fill-rule:nonzero;fill:rgb(67.058824%,67.058824%,67.058824%);fill-opacity:1;" d="M 11.660156 22.988281 L 11.851562 23.179688 L 11.660156 22.988281 M 8.984375 23.179688 L 9.175781 23.371094 Z M 8.984375 23.179688 "/>
<path style=" stroke:none;fill-rule:nonzero;fill:rgb(34.117647%,34.117647%,34.117647%);fill-opacity:1;" d="M 11.660156 23.179688 L 11.851562 23.371094 Z M 11.660156 23.179688 "/>
<path style=" stroke:none;fill-rule:nonzero;fill:rgb(67.058824%,67.058824%,67.058824%);fill-opacity:1;" d="M 11.46875 23.371094 L 11.660156 23.5625 Z M 11.46875 23.371094 "/>
<path style=" stroke:none;fill-rule:nonzero;fill:rgb(34.117647%,34.117647%,34.117647%);fill-opacity:1;" d="M 8.792969 23.5625 L 8.984375 23.753906 L 8.792969 23.5625 M 11.46875 23.5625 L 11.660156 23.753906 Z M 11.46875 23.5625 "/>
<path style=" stroke:none;fill-rule:nonzero;fill:rgb(67.058824%,67.058824%,67.058824%);fill-opacity:1;" d="M 8.792969 23.753906 L 8.984375 23.945312 Z M 8.792969 23.753906 "/>
<path style=" stroke:none;fill-rule:nonzero;fill:rgb(34.117647%,34.117647%,34.117647%);fill-opacity:1;" d="M 11.28125 23.945312 L 11.46875 24.136719 L 11.28125 23.945312 M 8.667969 24.265625 L 8.730469 24.394531 Z M 8.667969 24.265625 "/>
<path style=" stroke:none;fill-rule:nonzero;fill:rgb(67.058824%,67.058824%,67.058824%);fill-opacity:1;" d="M 11.089844 24.328125 L 11.28125 24.519531 L 11.089844 24.328125 M 8.667969 24.648438 L 8.730469 24.777344 Z M 8.667969 24.648438 "/>
<path style=" stroke:none;fill-rule:nonzero;fill:rgb(34.117647%,34.117647%,34.117647%);fill-opacity:1;" d="M 11.152344 24.648438 L 11.214844 24.777344 Z M 11.152344 24.648438 "/>
<path style=" stroke:none;fill-rule:nonzero;fill:rgb(67.058824%,67.058824%,67.058824%);fill-opacity:1;" d="M 10.960938 25.222656 L 11.023438 25.351562 Z M 10.960938 25.222656 "/>
<path style=" stroke:none;fill-rule:nonzero;fill:rgb(99.215686%,9.803922%,12.156863%);fill-opacity:1;" d="M 30.25 25.238281 C 29.1875 25.734375 29.632812 28.160156 29.632812 29.117188 L 29.632812 38.503906 C 29.632812 39.5 29.273438 41.402344 29.859375 42.253906 C 30.476562 43.15625 32.882812 42.71875 33.839844 42.71875 L 42.824219 42.71875 C 43.902344 42.71875 45.609375 43.042969 46.601562 42.578125 C 47.667969 42.082031 47.21875 39.65625 47.21875 38.699219 L 47.21875 29.308594 C 47.21875 28.316406 47.582031 26.414062 46.996094 25.5625 C 46.375 24.660156 43.96875 25.097656 43.015625 25.097656 L 34.03125 25.097656 C 32.953125 25.097656 31.242188 24.773438 30.25 25.238281 Z M 30.25 25.238281 "/>
<path style=" stroke:none;fill-rule:nonzero;fill:rgb(34.117647%,34.117647%,34.117647%);fill-opacity:1;" d="M 8.410156 25.289062 L 8.410156 27.203125 L 8.601562 27.203125 L 8.410156 25.289062 M 10.898438 25.480469 L 10.898438 27.011719 L 11.089844 27.011719 Z M 10.898438 25.480469 "/>
<path style=" stroke:none;fill-rule:nonzero;fill:rgb(67.058824%,67.058824%,67.058824%);fill-opacity:1;" d="M 10.960938 27.140625 L 11.023438 27.265625 Z M 10.960938 27.140625 "/>
<path style=" stroke:none;fill-rule:nonzero;fill:rgb(0.784314%,0.392157%,0.392157%);fill-opacity:1;" d="M 31.925781 27.394531 L 31.925781 40.421875 L 44.925781 40.421875 L 44.925781 27.394531 Z M 31.925781 27.394531 "/>
<path style=" stroke:none;fill-rule:nonzero;fill:rgb(67.058824%,67.058824%,67.058824%);fill-opacity:1;" d="M 8.667969 27.714844 L 8.730469 27.839844 Z M 8.667969 27.714844 "/>
<path style=" stroke:none;fill-rule:nonzero;fill:rgb(34.117647%,34.117647%,34.117647%);fill-opacity:1;" d="M 11.152344 27.714844 L 11.214844 27.839844 L 11.152344 27.714844 M 8.667969 28.097656 L 8.730469 28.226562 Z M 8.667969 28.097656 "/>
<path style=" stroke:none;fill-rule:nonzero;fill:rgb(67.058824%,67.058824%,67.058824%);fill-opacity:1;" d="M 11.089844 27.96875 L 11.28125 28.160156 Z M 11.089844 27.96875 "/>
<path style=" stroke:none;fill-rule:nonzero;fill:rgb(34.117647%,34.117647%,34.117647%);fill-opacity:1;" d="M 11.28125 28.351562 L 11.46875 28.542969 Z M 11.28125 28.351562 "/>
<path style=" stroke:none;fill-rule:nonzero;fill:rgb(67.058824%,67.058824%,67.058824%);fill-opacity:1;" d="M 8.792969 28.542969 L 8.984375 28.734375 Z M 8.792969 28.542969 "/>
<path style=" stroke:none;fill-rule:nonzero;fill:rgb(34.117647%,34.117647%,34.117647%);fill-opacity:1;" d="M 8.792969 28.734375 L 8.984375 28.925781 L 8.792969 28.734375 M 11.46875 28.734375 L 11.660156 28.925781 Z M 11.46875 28.734375 "/>
<path style=" stroke:none;fill-rule:nonzero;fill:rgb(67.058824%,67.058824%,67.058824%);fill-opacity:1;" d="M 11.46875 28.925781 L 11.660156 29.117188 Z M 11.46875 28.925781 "/>
<path style=" stroke:none;fill-rule:nonzero;fill:rgb(99.215686%,9.803922%,12.156863%);fill-opacity:1;" d="M 37.898438 29.070312 C 36.597656 29.65625 37.605469 31.695312 38.957031 31.082031 C 40.253906 30.496094 39.25 28.460938 37.898438 29.070312 M 41.71875 29.070312 C 40.507812 29.609375 41.3125 31.59375 42.621094 31.109375 C 44.039062 30.578125 43.085938 28.460938 41.71875 29.070312 Z M 41.71875 29.070312 "/>
<path style=" stroke:none;fill-rule:nonzero;fill:rgb(67.058824%,67.058824%,67.058824%);fill-opacity:1;" d="M 8.984375 29.117188 L 9.175781 29.308594 Z M 8.984375 29.117188 "/>
<path style=" stroke:none;fill-rule:nonzero;fill:rgb(34.117647%,34.117647%,34.117647%);fill-opacity:1;" d="M 11.660156 29.117188 L 11.851562 29.308594 L 11.660156 29.117188 M 43.015625 29.117188 L 43.207031 29.308594 L 43.015625 29.117188 M 8.984375 29.308594 L 9.175781 29.5 Z M 8.984375 29.308594 "/>
<path style=" stroke:none;fill-rule:nonzero;fill:rgb(67.058824%,67.058824%,67.058824%);fill-opacity:1;" d="M 11.660156 29.308594 L 11.851562 29.5 Z M 11.660156 29.308594 "/>
<path style=" stroke:none;fill-rule:nonzero;fill:rgb(34.117647%,34.117647%,34.117647%);fill-opacity:1;" d="M 11.851562 29.5 L 12.042969 29.695312 Z M 11.851562 29.5 "/>
<path style=" stroke:none;fill-rule:nonzero;fill:rgb(67.058824%,67.058824%,67.058824%);fill-opacity:1;" d="M 9.175781 29.695312 L 9.367188 29.886719 L 9.175781 29.695312 M 12.042969 29.886719 L 12.234375 30.078125 Z M 12.042969 29.886719 "/>
<path style=" stroke:none;fill-rule:nonzero;fill:rgb(34.117647%,34.117647%,34.117647%);fill-opacity:1;" d="M 37.089844 29.886719 L 37.28125 30.078125 Z M 37.089844 29.886719 "/>
<path style=" stroke:none;fill-rule:nonzero;fill:rgb(67.058824%,67.058824%,67.058824%);fill-opacity:1;" d="M 9.367188 30.078125 L 9.558594 30.269531 Z M 9.367188 30.078125 "/>
<path style=" stroke:none;fill-rule:nonzero;fill:rgb(34.117647%,34.117647%,34.117647%);fill-opacity:1;" d="M 12.234375 30.078125 L 12.425781 30.269531 L 12.234375 30.078125 M 12.425781 30.269531 L 12.617188 30.460938 Z M 12.425781 30.269531 "/>
<path style=" stroke:none;fill-rule:nonzero;fill:rgb(67.058824%,67.058824%,67.058824%);fill-opacity:1;" d="M 9.558594 30.460938 L 9.75 30.652344 Z M 9.558594 30.460938 "/>
<path style=" stroke:none;fill-rule:nonzero;fill:rgb(34.117647%,34.117647%,34.117647%);fill-opacity:1;" d="M 12.617188 30.460938 L 12.808594 30.652344 L 12.617188 30.460938 M 12.808594 30.652344 L 13 30.84375 L 12.808594 30.652344 M 9.75 30.84375 L 9.941406 31.035156 L 9.75 30.84375 M 13 30.84375 L 13.191406 31.035156 L 13 30.84375 M 43.015625 30.84375 L 43.207031 31.035156 Z M 43.015625 30.84375 "/>
<path style=" stroke:none;fill-rule:nonzero;fill:rgb(67.058824%,67.058824%,67.058824%);fill-opacity:1;" d="M 9.941406 31.035156 L 10.132812 31.226562 Z M 9.941406 31.035156 "/>
<path style=" stroke:none;fill-rule:nonzero;fill:rgb(34.117647%,34.117647%,34.117647%);fill-opacity:1;" d="M 13.191406 31.035156 L 13.382812 31.226562 L 13.191406 31.035156 M 13.382812 31.226562 L 13.574219 31.417969 L 13.382812 31.226562 M 38.425781 31.226562 L 38.617188 31.417969 L 38.425781 31.226562 M 42.058594 31.226562 L 42.25 31.417969 L 42.058594 31.226562 M 10.132812 31.417969 L 10.324219 31.609375 Z M 10.132812 31.417969 "/>
<path style=" stroke:none;fill-rule:nonzero;fill:rgb(67.058824%,67.058824%,67.058824%);fill-opacity:1;" d="M 13.574219 31.417969 L 13.765625 31.609375 L 13.574219 31.417969 M 10.324219 31.609375 L 10.515625 31.800781 Z M 10.324219 31.609375 "/>
<path style=" stroke:none;fill-rule:nonzero;fill:rgb(34.117647%,34.117647%,34.117647%);fill-opacity:1;" d="M 13.957031 31.609375 L 14.148438 31.800781 Z M 13.957031 31.609375 "/>
<path style=" stroke:none;fill-rule:nonzero;fill:rgb(67.058824%,67.058824%,67.058824%);fill-opacity:1;" d="M 10.515625 31.800781 L 10.707031 31.992188 L 10.515625 31.800781 M 14.148438 31.800781 L 14.339844 31.992188 Z M 14.148438 31.800781 "/>
<path style=" stroke:none;fill-rule:nonzero;fill:rgb(34.117647%,34.117647%,34.117647%);fill-opacity:1;" d="M 14.339844 31.800781 L 14.53125 31.992188 Z M 14.339844 31.800781 "/>
<path style=" stroke:none;fill-rule:nonzero;fill:rgb(67.058824%,67.058824%,67.058824%);fill-opacity:1;" d="M 14.53125 31.992188 L 14.71875 32.183594 Z M 14.53125 31.992188 "/>
<path style=" stroke:none;fill-rule:nonzero;fill:rgb(34.117647%,34.117647%,34.117647%);fill-opacity:1;" d="M 14.71875 31.992188 L 14.910156 32.183594 L 14.71875 31.992188 M 10.707031 32.183594 L 10.898438 32.375 L 10.707031 32.183594 M 15.101562 32.183594 L 15.292969 32.375 L 15.101562 32.183594 M 10.898438 32.375 L 11.089844 32.566406 Z M 10.898438 32.375 "/>
<path style=" stroke:none;fill-rule:nonzero;fill:rgb(67.058824%,67.058824%,67.058824%);fill-opacity:1;" d="M 15.484375 32.375 L 15.675781 32.566406 Z M 15.484375 32.375 "/>
<path style=" stroke:none;fill-rule:nonzero;fill:rgb(34.117647%,34.117647%,34.117647%);fill-opacity:1;" d="M 15.804688 32.4375 L 15.929688 32.503906 L 15.804688 32.4375 M 11.089844 32.566406 L 11.28125 32.757812 Z M 11.089844 32.566406 "/>
<path style=" stroke:none;fill-rule:nonzero;fill:rgb(67.058824%,67.058824%,67.058824%);fill-opacity:1;" d="M 16.378906 32.628906 L 16.503906 32.695312 Z M 16.378906 32.628906 "/>
<path style=" stroke:none;fill-rule:nonzero;fill:rgb(34.117647%,34.117647%,34.117647%);fill-opacity:1;" d="M 16.632812 32.566406 L 16.632812 32.757812 L 25.425781 32.757812 C 23.144531 31.800781 19.117188 32.566406 16.632812 32.566406 M 11.28125 32.757812 L 11.46875 32.949219 L 11.28125 32.757812 M 25.617188 32.757812 L 25.808594 32.949219 Z M 25.617188 32.757812 "/>
<path style=" stroke:none;fill-rule:nonzero;fill:rgb(67.058824%,67.058824%,67.058824%);fill-opacity:1;" d="M 11.660156 32.949219 L 11.851562 33.140625 L 11.660156 32.949219 M 25.808594 32.949219 L 26 33.140625 L 25.808594 32.949219 M 11.851562 33.140625 L 12.042969 33.332031 Z M 11.851562 33.140625 "/>
<path style=" stroke:none;fill-rule:nonzero;fill:rgb(34.117647%,34.117647%,34.117647%);fill-opacity:1;" d="M 26 33.140625 L 26.191406 33.332031 L 26 33.140625 M 12.042969 33.332031 L 12.234375 33.523438 Z M 12.042969 33.332031 "/>
<path style=" stroke:none;fill-rule:nonzero;fill:rgb(67.058824%,67.058824%,67.058824%);fill-opacity:1;" d="M 12.425781 33.523438 L 12.617188 33.714844 Z M 12.425781 33.523438 "/>
<path style=" stroke:none;fill-rule:nonzero;fill:rgb(34.117647%,34.117647%,34.117647%);fill-opacity:1;" d="M 26.191406 33.523438 L 26.191406 34.292969 L 26.382812 34.292969 L 26.191406 33.523438 M 12.617188 33.714844 L 12.808594 33.90625 Z M 12.617188 33.714844 "/>
<path style=" stroke:none;fill-rule:nonzero;fill:rgb(67.058824%,67.058824%,67.058824%);fill-opacity:1;" d="M 13 33.90625 L 13.191406 34.101562 L 13 33.90625 M 13.382812 34.101562 L 13.574219 34.292969 L 13.382812 34.101562 M 13.765625 34.292969 L 13.957031 34.484375 Z M 13.765625 34.292969 "/>
<path style=" stroke:none;fill-rule:nonzero;fill:rgb(34.117647%,34.117647%,34.117647%);fill-opacity:1;" d="M 14.148438 34.484375 L 14.339844 34.675781 Z M 14.148438 34.484375 "/>
<path style=" stroke:none;fill-rule:nonzero;fill:rgb(67.058824%,67.058824%,67.058824%);fill-opacity:1;" d="M 14.339844 34.484375 L 14.53125 34.675781 Z M 14.339844 34.484375 "/>
<path style=" stroke:none;fill-rule:nonzero;fill:rgb(34.117647%,34.117647%,34.117647%);fill-opacity:1;" d="M 26 34.484375 L 26.191406 34.675781 L 26 34.484375 M 14.71875 34.675781 L 14.910156 34.867188 Z M 14.71875 34.675781 "/>
<path style=" stroke:none;fill-rule:nonzero;fill:rgb(67.058824%,67.058824%,67.058824%);fill-opacity:1;" d="M 14.910156 34.675781 L 15.101562 34.867188 L 14.910156 34.675781 M 25.808594 34.675781 L 26 34.867188 Z M 25.808594 34.675781 "/>
<path style=" stroke:none;fill-rule:nonzero;fill:rgb(34.117647%,34.117647%,34.117647%);fill-opacity:1;" d="M 15.421875 34.929688 L 15.550781 34.992188 Z M 15.421875 34.929688 "/>
<path style=" stroke:none;fill-rule:nonzero;fill:rgb(67.058824%,67.058824%,67.058824%);fill-opacity:1;" d="M 15.804688 34.929688 L 15.929688 34.992188 Z M 15.804688 34.929688 "/>
<path style=" stroke:none;fill-rule:nonzero;fill:rgb(34.117647%,34.117647%,34.117647%);fill-opacity:1;" d="M 25.617188 34.867188 L 25.808594 35.058594 L 25.617188 34.867188 M 16.441406 35.058594 L 16.441406 35.25 L 25.425781 35.25 C 23.097656 34.269531 18.976562 35.058594 16.441406 35.058594 Z M 16.441406 35.058594 "/>
</g>
</svg>
