<?xml version="1.0" encoding="UTF-8"?>
<!DOCTYPE svg PUBLIC "-//W3C//DTD SVG 1.1//EN" "http://www.w3.org/Graphics/SVG/1.1/DTD/svg11.dtd">
<svg xmlns="http://www.w3.org/2000/svg" version="1.1" width="360px" height="360px" style="shape-rendering:geometricPrecision; text-rendering:geometricPrecision; image-rendering:optimizeQuality; fill-rule:evenodd; clip-rule:evenodd" xmlns:xlink="http://www.w3.org/1999/xlink">
<g><path style="opacity:0.923" fill="#ed0000" d="M 170.5,32.5 C 213.744,30.8526 250.91,44.8526 282,74.5C 282.333,68.8333 282.667,63.1667 283,57.5C 287.333,50.8333 291.667,50.8333 296,57.5C 296.667,68.8333 296.667,80.1667 296,91.5C 295.167,93.6667 293.667,95.1667 291.5,96C 280.167,96.6667 268.833,96.6667 257.5,96C 250.833,91.6667 250.833,87.3333 257.5,83C 261.833,82.6667 266.167,82.3333 270.5,82C 225.974,44.2642 176.641,36.5975 122.5,59C 116.911,60.5453 113.578,58.5453 112.5,53C 112.703,50.5941 113.703,48.5941 115.5,47C 133.122,38.9504 151.456,34.1171 170.5,32.5 Z"/></g>
<g><path style="opacity:0.923" fill="#ed0000" d="M 57.5,62.5 C 69.6009,62.0414 81.6009,62.5414 93.5,64C 94.7014,64.9025 95.5348,66.0692 96,67.5C 96.1667,73.1667 96.3333,78.8333 96.5,84.5C 96.6271,90.9368 96.1271,97.2701 95,103.5C 91.3333,107.5 87.6667,107.5 84,103.5C 82.7758,98.6141 82.1091,93.6141 82,88.5C 43.8405,134.08 36.3405,184.413 59.5,239.5C 59.5711,243.928 57.4044,246.262 53,246.5C 50.5941,246.297 48.5941,245.297 47,243.5C 24.5779,191.144 28.9113,141.144 60,93.5C 64.2447,87.5312 69.078,82.0312 74.5,77C 68.0582,76.9173 61.7248,76.2507 55.5,75C 51.2765,70.059 51.9431,65.8924 57.5,62.5 Z"/></g>
<g><path style="opacity:0.931" fill="#ed0000" d="M 177.5,102.5 C 181.493,102.245 184.326,103.911 186,107.5C 186.169,113.859 186.669,120.193 187.5,126.5C 196.606,128.138 204.773,131.804 212,137.5C 216.5,133 221,128.5 225.5,124C 233.333,122.5 236.5,125.667 235,133.5C 230.5,138 226,142.5 221.5,147C 227.196,154.227 230.862,162.394 232.5,171.5C 238.807,172.331 245.141,172.831 251.5,173C 258.167,177.333 258.167,181.667 251.5,186C 245.141,186.169 238.807,186.669 232.5,187.5C 230.862,196.606 227.196,204.773 221.5,212C 226,216.5 230.5,221 235,225.5C 236.5,233.333 233.333,236.5 225.5,235C 221,230.5 216.5,226 212,221.5C 204.773,227.196 196.606,230.862 187.5,232.5C 186.669,238.807 186.169,245.141 186,251.5C 181.667,258.167 177.333,258.167 173,251.5C 172.831,245.141 172.331,238.807 171.5,232.5C 162.394,230.862 154.227,227.196 147,221.5C 142.5,226 138,230.5 133.5,235C 125.667,236.5 122.5,233.333 124,225.5C 128.5,221 133,216.5 137.5,212C 131.804,204.773 128.138,196.606 126.5,187.5C 120.193,186.669 113.859,186.169 107.5,186C 100.833,181.667 100.833,177.333 107.5,173C 113.859,172.831 120.193,172.331 126.5,171.5C 128.138,162.394 131.804,154.227 137.5,147C 133,142.5 128.5,138 124,133.5C 122.5,125.667 125.667,122.5 133.5,124C 138,128.5 142.5,133 147,137.5C 153.895,131.97 161.729,128.47 170.5,127C 172.273,120.779 173.106,114.279 173,107.5C 174.025,105.313 175.525,103.646 177.5,102.5 Z M 172.5,139.5 C 196.776,138.293 212.276,149.293 219,172.5C 220.692,196.801 209.858,212.301 186.5,219C 162.199,220.692 146.699,209.858 140,186.5C 138.512,162.176 149.345,146.51 172.5,139.5 Z"/></g>
<g><path style="opacity:0.923" fill="#ed0000" d="M 303.5,112.5 C 306.862,112.07 309.695,113.07 312,115.5C 335.12,169.858 329.786,221.191 296,269.5C 292.535,273.967 288.702,278.133 284.5,282C 290.942,282.083 297.275,282.749 303.5,284C 307.802,288.797 307.136,292.797 301.5,296C 290.167,296.667 278.833,296.667 267.5,296C 265.333,295.167 263.833,293.667 263,291.5C 262.333,280.167 262.333,268.833 263,257.5C 267.333,250.833 271.667,250.833 276,257.5C 276.333,261.833 276.667,266.167 277,270.5C 315.16,224.92 322.66,174.587 299.5,119.5C 299.577,116.335 300.91,114.001 303.5,112.5 Z"/></g>
<g><path style="opacity:0.923" fill="#ed0000" d="M 67.5,262.5 C 79.6009,262.041 91.6009,262.541 103.5,264C 107.5,267.667 107.5,271.333 103.5,275C 98.6141,276.224 93.6141,276.891 88.5,277C 134.08,315.16 184.413,322.66 239.5,299.5C 245.082,299.989 247.249,302.989 246,308.5C 245.535,309.931 244.701,311.097 243.5,312C 191.144,334.422 141.144,330.089 93.5,299C 87.5312,294.755 82.0312,289.922 77,284.5C 76.6667,290.167 76.3333,295.833 76,301.5C 71.6667,308.167 67.3333,308.167 63,301.5C 62.3333,290.167 62.3333,278.833 63,267.5C 64.025,265.313 65.525,263.646 67.5,262.5 Z"/></g>
</svg>
